<svg xmlns="http://www.w3.org/2000/svg" width="512" height="512" viewBox="0 0 512 512">
<g>
<path d="M 227.92 510.17 C206.53,504.58 193.00,486.10 193.00,462.46 L 193.00 454.34 L 184.25 451.04 C179.44,449.22 172.22,446.16 168.22,444.25 L 160.93 440.76 L 155.12 446.31 C151.92,449.36 147.10,453.25 144.40,454.96 C130.28,463.92 110.95,464.27 96.20,455.83 C88.95,451.68 60.35,423.10 56.21,415.86 C48.23,401.91 47.97,384.88 55.51,369.98 C56.77,367.49 60.76,362.27 64.37,358.37 L 70.93 351.28 L 66.59 341.39 C64.21,335.95 61.24,328.69 59.99,325.25 L 57.73 319.00 L 49.05 319.00 C34.59,319.00 23.41,314.58 13.98,305.13 C7.65,298.79 2.54,289.33 1.01,281.11 C-0.30,274.13 -0.30,237.87 1.01,230.89 C2.54,222.67 7.65,213.21 13.98,206.87 C23.54,197.29 34.34,193.03 49.12,193.01 L 57.73 193.00 L 59.99 186.75 C61.24,183.31 64.21,176.05 66.59,170.61 L 70.93 160.72 L 64.37 153.63 C60.76,149.73 56.77,144.51 55.51,142.02 C47.97,127.12 48.23,110.09 56.21,96.14 C60.35,88.90 88.95,60.32 96.20,56.17 C110.17,48.18 127.14,47.98 142.25,55.63 C144.86,56.95 150.11,60.97 153.91,64.55 L 160.82 71.08 L 168.16 67.69 C172.20,65.83 179.44,62.81 184.25,60.98 L 193.00 57.66 L 193.00 49.54 C193.00,34.76 197.47,23.32 206.87,14.05 C218.89,2.18 226.53,-0.00 256.00,-0.00 C285.47,-0.00 293.11,2.18 305.13,14.05 C314.54,23.33 319.00,34.76 319.00,49.58 L 319.00 57.73 L 327.75 61.02 C332.56,62.83 339.83,65.82 343.90,67.67 L 351.30 71.02 L 357.00 65.59 C371.42,51.83 387.41,47.09 404.47,51.53 C414.83,54.23 419.62,57.67 436.54,74.55 C453.71,91.69 457.75,97.28 460.42,107.64 C464.86,124.88 460.22,140.53 446.38,155.04 L 440.90 160.78 L 444.30 168.14 C446.17,172.19 449.19,179.44 451.02,184.25 L 454.34 193.00 L 462.12 193.00 C466.40,193.00 472.29,193.51 475.20,194.13 C492.48,197.79 507.74,213.47 510.99,230.89 C512.30,237.87 512.30,274.13 510.99,281.11 C507.74,298.53 492.48,314.21 475.20,317.87 C472.29,318.49 466.38,319.00 462.08,319.00 L 454.27 319.00 L 450.97 327.75 C449.16,332.56 446.16,339.81 444.29,343.86 L 440.90 351.22 L 446.38 356.96 C460.22,371.47 464.86,387.12 460.42,404.36 C457.75,414.72 453.71,420.31 436.54,437.45 C419.62,454.33 414.83,457.77 404.47,460.47 C387.41,464.91 371.42,460.17 357.00,446.41 L 351.30 440.98 L 343.90 444.33 C339.83,446.18 332.56,449.17 327.75,450.98 L 319.00 454.27 L 319.00 462.95 C319.00,482.50 309.31,498.85 293.00,506.82 C283.84,511.29 278.52,512.01 255.11,511.94 C238.99,511.90 233.07,511.51 227.92,510.17 ZM 279.70 479.90 C282.59,478.51 284.86,476.39 286.51,473.57 C288.84,469.59 289.00,468.44 289.00,455.18 C289.00,439.44 290.24,434.35 294.86,431.15 C296.31,430.14 303.27,427.44 310.33,425.14 C317.38,422.84 329.50,417.82 337.26,413.98 C345.01,410.14 352.49,407.00 353.86,407.00 C358.60,407.00 364.56,410.97 373.52,420.11 C382.89,429.66 386.60,432.00 392.40,432.00 C398.50,432.00 401.20,430.14 415.20,416.26 C429.54,402.05 432.00,398.59 432.00,392.57 C432.00,386.50 429.66,382.76 419.59,372.72 C410.19,363.35 407.00,358.53 407.00,353.70 C407.00,352.40 410.12,345.07 413.93,337.42 C417.73,329.76 422.76,317.65 425.09,310.50 C427.41,303.35 430.14,296.31 431.15,294.86 C434.35,290.24 439.44,289.00 455.18,289.00 C468.44,289.00 469.59,288.84 473.57,286.51 C481.06,282.12 482.00,278.73 482.00,256.00 C482.00,233.27 481.06,229.88 473.57,225.49 C469.59,223.16 468.44,223.00 455.18,223.00 C439.44,223.00 434.35,221.76 431.15,217.14 C430.14,215.69 427.41,208.65 425.09,201.50 C422.76,194.35 417.73,182.24 413.93,174.58 C410.12,166.93 407.00,159.60 407.00,158.30 C407.00,153.47 410.19,148.65 419.59,139.28 C429.63,129.27 432.00,125.50 432.00,119.50 C432.00,113.29 429.57,109.84 415.35,95.81 C401.19,81.85 398.50,80.00 392.40,80.00 C386.60,80.00 382.89,82.34 373.52,91.89 C364.56,101.02 358.60,105.00 353.87,105.00 C352.49,105.00 345.09,101.88 337.43,98.08 C329.77,94.27 317.65,89.25 310.50,86.92 C303.35,84.59 296.31,81.86 294.86,80.85 C290.24,77.65 289.00,72.56 289.00,56.82 C289.00,43.56 288.84,42.41 286.51,38.43 C282.12,30.94 278.73,30.00 256.00,30.00 C233.27,30.00 229.88,30.94 225.49,38.43 C223.16,42.41 223.00,43.56 223.00,56.82 C223.00,72.56 221.76,77.65 217.14,80.85 C215.69,81.86 208.71,84.57 201.63,86.88 C194.56,89.18 182.44,94.21 174.72,98.04 C166.99,101.87 159.60,105.00 158.30,105.00 C153.45,105.00 148.52,101.75 139.14,92.36 C129.05,82.26 125.45,80.00 119.43,80.00 C113.41,80.00 109.95,82.46 95.74,96.80 C81.86,110.80 80.00,113.50 80.00,119.60 C80.00,125.40 82.34,129.11 91.89,138.48 C101.03,147.45 105.00,153.40 105.00,158.15 C105.00,159.53 101.88,166.93 98.07,174.58 C94.27,182.24 89.24,194.35 86.91,201.50 C84.59,208.65 81.86,215.69 80.85,217.14 C77.65,221.76 72.56,223.00 56.82,223.00 C43.56,223.00 42.41,223.16 38.43,225.49 C30.94,229.88 30.00,233.27 30.00,256.00 C30.00,278.73 30.94,282.12 38.43,286.51 C42.41,288.84 43.56,289.00 56.82,289.00 C72.56,289.00 77.65,290.24 80.85,294.86 C81.86,296.31 84.57,303.29 86.88,310.37 C89.18,317.44 94.21,329.56 98.04,337.28 C101.87,345.01 105.00,352.47 105.00,353.85 C105.00,358.60 101.03,364.55 91.89,373.52 C82.27,382.95 80.00,386.59 80.00,392.57 C80.00,398.59 82.46,402.05 96.80,416.26 C110.80,430.14 113.50,432.00 119.60,432.00 C125.37,432.00 129.09,429.66 138.50,420.12 C147.55,410.94 153.46,407.00 158.18,407.00 C159.58,407.00 167.09,410.15 174.86,414.00 C182.64,417.85 194.74,422.88 201.75,425.16 C208.76,427.45 215.69,430.14 217.14,431.15 C221.76,434.35 223.00,439.44 223.00,455.18 C223.00,468.42 223.16,469.59 225.47,473.54 C227.09,476.30 229.43,478.50 232.22,479.88 C236.14,481.82 238.16,482.00 255.93,482.00 C273.62,482.00 275.76,481.81 279.70,479.90 ZM 233.50 365.02 C191.85,356.01 159.76,325.65 148.27,284.37 C145.72,275.24 145.52,273.12 145.52,256.00 C145.52,238.88 145.72,236.76 148.27,227.63 C159.06,188.87 188.76,159.04 227.11,148.44 C238.72,145.23 260.17,144.06 273.01,145.94 C308.92,151.19 341.24,175.63 357.13,209.55 C359.25,214.06 362.22,222.20 363.73,227.63 C366.29,236.80 366.48,238.81 366.44,256.00 C366.40,272.77 366.15,275.41 363.77,284.21 C353.27,322.97 322.67,353.55 284.21,363.70 C270.65,367.28 246.79,367.90 233.50,365.02 ZM 271.57 335.91 C302.22,330.27 328.99,303.94 335.50,273.01 C337.38,264.07 337.41,247.59 335.56,238.86 C329.05,208.16 302.08,181.70 271.57,176.09 C263.34,174.58 246.81,174.76 238.86,176.44 C208.24,182.93 181.69,210.00 176.09,240.43 C174.69,248.05 174.69,263.95 176.09,271.57 C181.64,301.76 207.95,328.79 238.26,335.43 C245.96,337.12 263.60,337.37 271.57,335.91 Z" fill="rgba(0,0,0,1)"/>
</g>
</svg>