<?xml version="1.0" standalone="no"?>
<!DOCTYPE svg PUBLIC "-//W3C//DTD SVG 20010904//EN"
 "http://www.w3.org/TR/2001/REC-SVG-20010904/DTD/svg10.dtd">
<svg version="1.0" xmlns="http://www.w3.org/2000/svg"
 width="512.000000pt" height="512.000000pt" viewBox="0 0 512.000000 512.000000"
 preserveAspectRatio="xMidYMid meet">

<g transform="translate(0.000000,512.000000) scale(0.100000,-0.100000)"
fill="#000000" stroke="none">
<path d="M4645 4781 c-16 -10 -131 -120 -255 -245 l-224 -225 -101 98 c-114
111 -181 150 -272 158 -74 6 -969 -117 -1069 -148 -98 -30 -207 -89 -299 -162
-44 -35 -321 -288 -615 -563 -295 -274 -728 -678 -963 -897 -235 -219 -440
-417 -456 -440 -48 -71 -65 -131 -65 -242 -1 -93 1 -105 32 -170 31 -66 71
-108 780 -817 656 -656 754 -750 804 -773 84 -38 166 -50 252 -36 115 19 169
50 266 151 47 50 90 90 96 90 6 0 130 -45 277 -100 300 -112 352 -123 455 -96
34 8 81 25 104 37 56 28 145 114 171 164 11 22 145 415 298 873 l277 832 57
63 c113 123 184 237 223 357 29 88 32 107 96 565 73 533 71 511 51 581 -24 83
-46 116 -154 227 l-95 98 244 244 245 245 0 46 c0 39 -5 50 -33 75 -38 34 -83
38 -127 10z m-845 -431 c24 -6 64 -39 125 -100 l90 -90 -122 -122 -121 -121
-46 13 c-73 20 -182 9 -245 -25 -149 -81 -210 -269 -136 -418 47 -95 132 -158
240 -178 140 -26 300 70 350 211 19 53 19 152 0 205 l-14 40 117 118 c64 64
122 117 128 117 5 0 52 -42 102 -94 l92 -93 0 -56 c0 -72 -114 -896 -136 -979
-20 -82 -62 -159 -124 -231 -27 -32 -451 -489 -941 -1015 -585 -629 -905 -965
-932 -979 -48 -27 -142 -31 -185 -9 -15 8 -356 345 -759 748 -689 690 -733
736 -742 778 -10 47 -3 106 19 152 12 25 1894 1787 2014 1886 66 55 155 97
246 116 58 12 499 75 905 129 17 2 32 5 35 5 3 1 21 -2 40 -8z m-98 -649 c28
-25 33 -36 33 -76 0 -40 -5 -51 -33 -76 -70 -62 -172 -20 -172 71 0 51 12 75
48 94 44 24 88 20 124 -13z m-112 -2408 c-106 -318 -201 -594 -210 -613 -34
-67 -104 -111 -179 -113 -35 -1 -99 19 -268 82 l-222 84 27 32 c62 74 1036
1114 1040 1110 2 -2 -83 -264 -188 -582z"/>
<path d="M1774 2546 c-43 -19 -64 -52 -64 -101 0 -39 6 -46 353 -392 336 -337
354 -353 389 -353 71 0 130 77 107 139 -14 36 -667 690 -706 707 -39 17 -40
17 -79 0z"/>
<path d="M1463 2233 c-38 -7 -73 -59 -73 -106 0 -41 2 -44 353 -394 348 -349
353 -353 393 -353 69 0 125 65 109 127 -4 19 -121 143 -343 367 -297 298 -378
370 -409 365 -4 -1 -18 -4 -30 -6z"/>
</g>
</svg>
