<?xml version="1.0" standalone="no"?>
<!DOCTYPE svg PUBLIC "-//W3C//DTD SVG 20010904//EN"
 "http://www.w3.org/TR/2001/REC-SVG-20010904/DTD/svg10.dtd">
<svg version="1.0" xmlns="http://www.w3.org/2000/svg"
 width="512.000000pt" height="512.000000pt" viewBox="0 0 512.000000 512.000000"
 preserveAspectRatio="xMidYMid meet">

<g transform="translate(0.000000,512.000000) scale(0.100000,-0.100000)"
fill="#000000" stroke="none">
<path d="M560 4597 c-48 -24 -50 -38 -50 -415 0 -398 1 -402 68 -422 23 -8
102 -10 214 -8 170 3 177 4 202 27 25 23 26 29 28 163 l3 139 440 -727 c242
-399 455 -752 473 -783 46 -83 108 -359 92 -413 -9 -31 -59 -82 -278 -283
-147 -134 -279 -263 -294 -286 -15 -23 -34 -63 -42 -88 -15 -47 -106 -712
-106 -773 1 -162 230 -268 396 -182 101 51 106 63 199 419 70 265 88 323 113
354 16 20 85 71 153 114 398 248 381 247 679 63 202 -125 252 -162 275 -207 9
-16 51 -164 94 -329 85 -328 99 -361 175 -405 175 -103 416 -2 416 174 0 46
-83 695 -96 748 -13 52 -53 120 -101 171 -26 27 -157 150 -290 272 -158 144
-243 229 -243 241 0 38 70 330 89 373 10 24 39 75 63 112 25 38 223 364 441
724 218 360 403 664 411 675 14 18 15 8 16 -111 0 -127 1 -131 26 -155 25 -23
31 -24 202 -27 112 -2 191 0 214 8 69 20 69 23 66 435 -3 364 -3 364 -26 387
-22 22 -30 23 -209 26 -203 4 -224 1 -253 -28 -18 -18 -20 -34 -20 -165 l0
-145 -1540 0 -1540 0 0 139 c0 77 -3 147 -6 156 -15 37 -56 45 -246 45 -127 0
-191 -4 -208 -13z m290 -412 l0 -255 -85 0 -85 0 0 255 0 255 85 0 85 0 0
-255z m3590 0 l0 -255 -85 0 -85 0 0 255 0 255 85 0 85 0 0 -255z m-3000 -230
c58 -77 264 -353 457 -613 212 -283 363 -477 378 -484 20 -9 42 -7 113 10 117
29 237 29 354 0 79 -20 91 -21 113 -8 13 8 228 290 478 625 l454 610 62 3 c33
2 61 1 61 -2 0 -6 -797 -1323 -832 -1374 -16 -23 -43 -71 -59 -106 -33 -72
-109 -387 -109 -456 1 -95 9 -105 396 -459 111 -101 211 -200 222 -220 17 -29
31 -112 68 -394 44 -339 46 -359 29 -377 -37 -41 -154 -30 -169 17 -3 10 -40
148 -81 307 -82 313 -102 361 -174 429 -47 44 -352 239 -451 289 -104 52 -251
55 -357 8 -26 -11 -133 -74 -238 -138 -202 -124 -276 -186 -312 -262 -12 -25
-57 -180 -100 -345 l-79 -300 -37 -19 c-43 -21 -92 -16 -127 12 l-22 18 47
354 c25 195 52 368 59 385 12 29 84 98 416 407 148 137 184 185 202 271 11 53
9 68 -27 233 -29 128 -49 197 -75 248 -20 39 -226 385 -458 769 -232 384 -422
701 -422 703 0 3 26 4 58 2 l57 -3 105 -140z m2130 139 c0 -3 -176 -242 -392
-531 -391 -524 -391 -525 -422 -518 -75 15 -291 17 -353 2 l-62 -14 -388 520
c-213 286 -392 526 -396 533 -7 12 151 14 1003 14 555 0 1010 -3 1010 -6z"/>
<path d="M2438 3991 c-155 -50 -261 -166 -294 -322 -44 -209 78 -419 284 -488
114 -39 259 -21 360 43 139 88 220 269 192 427 -47 257 -302 417 -542 340z
m246 -185 c85 -50 128 -123 128 -221 1 -258 -335 -351 -472 -130 -65 105 -36
254 65 330 81 62 194 71 279 21z"/>
</g>
</svg>
