<?xml version="1.0" standalone="no"?>
<!DOCTYPE svg PUBLIC "-//W3C//DTD SVG 20010904//EN"
 "http://www.w3.org/TR/2001/REC-SVG-20010904/DTD/svg10.dtd">
<svg version="1.0" xmlns="http://www.w3.org/2000/svg"
 width="512.000000pt" height="512.000000pt" viewBox="0 0 512.000000 512.000000"
 preserveAspectRatio="xMidYMid meet">

<g transform="translate(0.000000,512.000000) scale(0.100000,-0.100000)"
fill="#000000" stroke="none">
<path d="M2384 4351 c-92 -23 -203 -76 -281 -135 -200 -151 -316 -426 -284
-670 26 -190 84 -310 217 -443 l91 -92 -72 -35 c-336 -159 -586 -488 -650
-855 -22 -124 -22 -891 0 -976 47 -181 199 -333 380 -380 88 -23 1462 -23
1550 0 181 47 333 199 380 380 22 85 22 852 0 976 -64 366 -314 696 -647 854
l-75 36 91 92 c152 153 218 309 219 522 1 292 -155 543 -418 670 -49 24 -122
50 -162 59 -94 21 -248 19 -339 -3z m295 -206 c173 -41 323 -174 383 -340 26
-73 35 -209 19 -287 -38 -181 -184 -343 -360 -399 -91 -29 -231 -29 -322 0
-175 56 -322 219 -360 399 -16 78 -7 214 19 287 91 252 363 400 621 340z m112
-1294 c179 -46 319 -127 449 -260 95 -96 163 -198 209 -312 65 -163 66 -171
66 -649 l0 -435 -27 -51 c-40 -76 -70 -107 -140 -145 l-63 -34 -725 0 -725 0
-63 34 c-70 38 -100 69 -140 145 l-27 51 0 435 c0 478 1 486 66 649 47 117
114 217 213 317 158 157 305 231 556 278 59 11 277 -3 351 -23z"/>
<path d="M805 4034 c-171 -41 -336 -174 -414 -334 -53 -109 -74 -209 -68 -320
10 -161 74 -304 185 -414 l60 -60 -75 -42 c-232 -133 -398 -349 -464 -605 -20
-75 -23 -117 -26 -394 -4 -260 -2 -321 11 -379 41 -177 171 -324 341 -389 57
-21 75 -22 408 -25 l348 -3 36 36 c32 32 35 39 30 77 -3 26 -15 51 -31 67
l-26 26 -333 5 c-323 5 -333 6 -385 29 -65 29 -143 112 -168 178 -15 40 -18
89 -22 297 -4 282 5 381 48 496 149 409 598 598 1010 425 77 -32 117 -28 154
16 45 53 28 129 -37 164 l-36 19 72 76 c148 157 205 358 162 565 -49 233 -245
435 -475 489 -81 19 -225 19 -305 0z m258 -209 c84 -22 134 -51 197 -114 164
-164 168 -418 9 -586 -88 -93 -185 -135 -311 -135 -122 0 -224 46 -311 139
-155 166 -149 420 13 582 111 111 256 152 403 114z"/>
<path d="M4005 4034 c-171 -41 -336 -174 -414 -334 -124 -254 -78 -540 118
-735 l60 -61 -35 -19 c-66 -35 -83 -110 -38 -164 37 -44 77 -48 154 -16 104
44 204 65 307 65 123 0 217 -22 328 -75 199 -97 333 -259 397 -480 21 -75 23
-97 23 -375 0 -261 -2 -301 -18 -348 -25 -70 -101 -152 -169 -183 -52 -23 -62
-24 -385 -29 l-333 -5 -26 -26 c-16 -16 -28 -41 -31 -67 -5 -38 -2 -45 30 -77
l36 -36 348 3 c333 3 351 4 408 25 168 64 299 212 340 384 21 91 21 580 0 703
-51 294 -228 544 -485 684 l-68 37 72 76 c146 155 204 358 161 564 -49 233
-245 435 -475 489 -81 19 -225 19 -305 0z m258 -209 c84 -22 134 -51 197 -114
164 -164 168 -418 9 -586 -88 -93 -185 -135 -311 -135 -122 0 -224 46 -311
139 -155 166 -149 420 13 582 111 111 256 152 403 114z"/>
</g>
</svg>
